<svg width="123" height="32" viewBox="0 0 123 32" fill="none" xmlns="http://www.w3.org/2000/svg">
<path d="M19.1701 2.95435L14 0L0 8V24L5.2 26.9714V11.0177L5.59292 10.7931L19.1701 2.95435Z" fill="#83D0AF"/>
<path d="M26.0663 6.89502L13.98 13.873L13.98 19.7977L22.8 14.7577V20.9823L14 26.0109V32L28 24V8L26.0663 6.89502Z" fill="#83D0AF"/>
<path d="M39.2265 24C40.0527 24 40.7009 24.2688 41.1709 24.8065C41.641 25.3369 41.8761 26.0215 41.8761 26.8602C41.8761 27.6918 41.6375 28.3763 41.1603 28.914C40.6902 29.4516 40.0456 29.7204 39.2265 29.7204C38.8348 29.7204 38.4608 29.6237 38.1047 29.4301C37.7557 29.2366 37.485 28.9713 37.2927 28.6344V32H36V24.129H37.2927V25.086C37.485 24.7491 37.7557 24.4839 38.1047 24.2903C38.4608 24.0968 38.8348 24 39.2265 24ZM38.9701 28.6559C39.4758 28.6559 39.8675 28.4875 40.1453 28.1505C40.4302 27.8065 40.5727 27.3763 40.5727 26.8602C40.5727 26.3441 40.4302 25.9176 40.1453 25.5806C39.8675 25.2366 39.4758 25.0645 38.9701 25.0645C38.4573 25.0645 38.0477 25.233 37.7415 25.5699C37.4352 25.9068 37.2821 26.3369 37.2821 26.8602C37.2821 27.3835 37.4352 27.8136 37.7415 28.1505C38.0477 28.4875 38.4573 28.6559 38.9701 28.6559Z" fill="#8E93A8"/>
<path d="M45.8635 24C45.9348 24 46.0665 24.0108 46.2588 24.0323V25.3978C46.1021 25.3405 45.9134 25.3118 45.6926 25.3118C45.4433 25.3118 45.2225 25.3835 45.0302 25.5269C44.845 25.6631 44.7026 25.8459 44.6029 26.0753C44.5031 26.2975 44.4284 26.5269 44.3785 26.7634C44.3358 26.9928 44.3144 27.2222 44.3144 27.4516V29.5914H43.0217V24.129H44.2823V25.6237C44.3536 25.172 44.5281 24.7885 44.8058 24.4731C45.0836 24.1577 45.4362 24 45.8635 24Z" fill="#8E93A8"/>
<path d="M52.1667 26.6237C52.1667 26.8387 52.156 26.9964 52.1347 27.0968H47.9573C48.0143 27.6057 48.1995 27.9964 48.5129 28.2688C48.8263 28.5341 49.2394 28.6667 49.7522 28.6667C50.3505 28.6667 50.8277 28.5484 51.1838 28.3118L51.6859 29.1398C51.109 29.5269 50.4288 29.7204 49.6453 29.7204C48.7764 29.7204 48.0641 29.4624 47.5086 28.9462C46.9602 28.4301 46.6859 27.7384 46.6859 26.871C46.6859 26.0179 46.9459 25.3262 47.4659 24.7957C47.9929 24.2652 48.6767 24 49.5171 24C50.3149 24 50.9559 24.2401 51.4402 24.7204C51.9245 25.1935 52.1667 25.828 52.1667 26.6237ZM49.4851 25.0108C49.0862 25.0108 48.755 25.129 48.4915 25.3656C48.2351 25.595 48.0713 25.9104 48 26.3118H50.8847C50.8562 25.9032 50.7173 25.5842 50.468 25.3548C50.2187 25.1254 49.8911 25.0108 49.4851 25.0108Z" fill="#8E93A8"/>
<path d="M57.4995 24.914L54.5615 28.5699H57.6063V29.5914H52.788V28.8172L55.7153 25.1505H52.9482V24.129H57.4995V24.914Z" fill="#8E93A8"/>
<path d="M61.7486 24C62.4039 24 62.906 24.2401 63.255 24.7204C63.6112 25.1935 63.7892 25.7706 63.7892 26.4516V29.5914H62.4858V26.5054C62.4858 26.1039 62.3897 25.767 62.1973 25.4946C62.005 25.2151 61.7166 25.0753 61.332 25.0753C60.8904 25.0753 60.552 25.2473 60.317 25.5914C60.082 25.9283 59.9644 26.3297 59.9644 26.7957V29.5914H58.6717V24.129H59.9644V25.0968C60.1069 24.7527 60.3419 24.4839 60.6696 24.2903C61.0043 24.0968 61.364 24 61.7486 24Z" fill="#8E93A8"/>
<path d="M67.4252 24C68.1944 24 68.8141 24.2222 69.2842 24.6667C69.7614 25.1111 70 25.7168 70 26.4839V29.5914H68.6966V28.8172C68.4971 29.1111 68.2229 29.3369 67.8739 29.4946C67.532 29.6452 67.1724 29.7204 66.7949 29.7204C66.2464 29.7204 65.7728 29.5699 65.3739 29.2688C64.9751 28.9677 64.7756 28.5484 64.7756 28.0108C64.7756 27.4516 64.9929 27.0251 65.4273 26.7312C65.8689 26.4373 66.3818 26.2903 66.9658 26.2903C67.6496 26.2903 68.2301 26.4767 68.7073 26.8495V26.4194C68.7073 25.9892 68.5719 25.6523 68.3013 25.4086C68.0306 25.1577 67.6816 25.0323 67.2543 25.0323C66.599 25.0323 66.047 25.2115 65.5983 25.5699L65.1603 24.7097C65.4452 24.4803 65.7942 24.3047 66.2073 24.1828C66.6275 24.0609 67.0335 24 67.4252 24ZM67.1795 28.7742C67.8134 28.7742 68.3191 28.5305 68.6966 28.043L68.7073 27.4839C68.287 27.2115 67.8205 27.0753 67.3077 27.0753C66.9943 27.0753 66.713 27.147 66.4637 27.2903C66.2144 27.4337 66.0897 27.6487 66.0897 27.9355C66.0897 28.2079 66.2001 28.4158 66.4209 28.5591C66.6417 28.7025 66.8946 28.7742 67.1795 28.7742Z" fill="#8E93A8"/>
<path d="M118.525 5.59961C119.858 5.59961 121.098 5.89294 122.245 6.47961L121.545 8.11961C120.505 7.65294 119.545 7.41961 118.665 7.41961C118.212 7.41961 117.812 7.51294 117.465 7.69961C117.118 7.87294 116.945 8.16628 116.945 8.57961C116.945 9.08628 117.365 9.45961 118.205 9.69961L119.665 10.1596C121.492 10.7463 122.405 11.7529 122.405 13.1796C122.405 14.1929 121.998 14.9596 121.185 15.4796C120.385 15.9863 119.445 16.2396 118.365 16.2396C116.658 16.2396 115.218 15.8796 114.045 15.1596L114.865 13.4796C115.918 14.0796 117.045 14.3796 118.245 14.3796C118.685 14.3796 119.098 14.2863 119.485 14.0996C119.885 13.9129 120.085 13.6263 120.085 13.2396C120.085 12.6796 119.618 12.2729 118.685 12.0196L117.225 11.5596C115.492 10.9863 114.625 10.0063 114.625 8.61961C114.625 7.61961 115.012 6.86628 115.785 6.35961C116.558 5.85294 117.472 5.59961 118.525 5.59961Z" fill="#F8F9FA"/>
<path d="M109.033 5.59961C110.366 5.59961 111.606 5.89294 112.753 6.47961L112.053 8.11961C111.013 7.65294 110.053 7.41961 109.173 7.41961C108.719 7.41961 108.319 7.51294 107.973 7.69961C107.626 7.87294 107.453 8.16628 107.453 8.57961C107.453 9.08628 107.873 9.45961 108.713 9.69961L110.173 10.1596C111.999 10.7463 112.913 11.7529 112.913 13.1796C112.913 14.1929 112.506 14.9596 111.693 15.4796C110.893 15.9863 109.953 16.2396 108.873 16.2396C107.166 16.2396 105.726 15.8796 104.553 15.1596L105.373 13.4796C106.426 14.0796 107.553 14.3796 108.753 14.3796C109.193 14.3796 109.606 14.2863 109.993 14.0996C110.393 13.9129 110.593 13.6263 110.593 13.2396C110.593 12.6796 110.126 12.2729 109.193 12.0196L107.733 11.5596C105.999 10.9863 105.133 10.0063 105.133 8.61961C105.133 7.61961 105.519 6.86628 106.293 6.35961C107.066 5.85294 107.979 5.59961 109.033 5.59961Z" fill="#F8F9FA"/>
<path d="M103.471 10.4796C103.471 10.8796 103.451 11.1729 103.411 11.3596H95.5909C95.6976 12.3063 96.0443 13.0329 96.6309 13.5396C97.2176 14.0329 97.9909 14.2796 98.9509 14.2796C100.071 14.2796 100.964 14.0596 101.631 13.6196L102.571 15.1596C101.491 15.8796 100.218 16.2396 98.7509 16.2396C97.1243 16.2396 95.7909 15.7596 94.7509 14.7996C93.7243 13.8396 93.2109 12.5529 93.2109 10.9396C93.2109 9.35294 93.6976 8.06628 94.6709 7.07961C95.6576 6.09294 96.9376 5.59961 98.5109 5.59961C100.004 5.59961 101.204 6.04628 102.111 6.93961C103.018 7.81961 103.471 8.99961 103.471 10.4796ZM98.4509 7.47961C97.7043 7.47961 97.0843 7.69961 96.5909 8.13961C96.1109 8.56628 95.8043 9.15294 95.6709 9.89961H101.071C101.018 9.13961 100.758 8.54628 100.291 8.11961C99.8243 7.69294 99.2109 7.47961 98.4509 7.47961Z" fill="#F8F9FA"/>
<path d="M91.6716 5.59961C91.8049 5.59961 92.0516 5.61961 92.4116 5.65961V8.19961C92.1182 8.09294 91.7649 8.03961 91.3516 8.03961C90.8849 8.03961 90.4716 8.17294 90.1116 8.43961C89.7649 8.69294 89.4982 9.03294 89.3116 9.45961C89.1249 9.87294 88.9849 10.2996 88.8916 10.7396C88.8116 11.1663 88.7716 11.5929 88.7716 12.0196V15.9996H86.3516V5.83961H88.7116V8.61961C88.8449 7.77961 89.1716 7.06628 89.6916 6.47961C90.2116 5.89294 90.8716 5.59961 91.6716 5.59961Z" fill="#F8F9FA"/>
<path d="M79.247 5.59961C80.7937 5.59961 82.007 6.09961 82.887 7.09961C83.767 8.08628 84.207 9.35961 84.207 10.9196C84.207 12.4663 83.7604 13.7396 82.867 14.7396C81.987 15.7396 80.7804 16.2396 79.247 16.2396C78.5137 16.2396 77.8137 16.0596 77.147 15.6996C76.4937 15.3396 75.987 14.8463 75.627 14.2196V20.4796H73.207V5.83961H75.627V7.61961C75.987 6.99294 76.4937 6.49961 77.147 6.13961C77.8137 5.77961 78.5137 5.59961 79.247 5.59961ZM78.767 14.2596C79.7137 14.2596 80.447 13.9463 80.967 13.3196C81.5004 12.6796 81.767 11.8796 81.767 10.9196C81.767 9.95961 81.5004 9.16628 80.967 8.53961C80.447 7.89961 79.7137 7.57961 78.767 7.57961C77.807 7.57961 77.0404 7.89294 76.467 8.51961C75.8937 9.14628 75.607 9.94628 75.607 10.9196C75.607 11.8929 75.8937 12.6929 76.467 13.3196C77.0404 13.9463 77.807 14.2596 78.767 14.2596Z" fill="#F8F9FA"/>
<path d="M71.1206 13.8795L71.7006 15.5195C71.0073 15.9995 70.134 16.2395 69.0806 16.2395C68.1206 16.2395 67.3206 15.9528 66.6806 15.3795C66.0406 14.8062 65.7206 14.0462 65.7206 13.0995V7.67949H64.1406V5.83949H65.8606L66.3406 2.97949H68.1206V5.83949H71.1806V7.67949H68.1206V12.5595C68.1206 13.0662 68.2473 13.4728 68.5006 13.7795C68.754 14.0862 69.134 14.2395 69.6406 14.2395C70.174 14.2395 70.6673 14.1195 71.1206 13.8795Z" fill="#F8F9FA"/>
<path d="M59.189 5.59961C60.5223 5.59961 61.7623 5.89294 62.909 6.47961L62.209 8.11961C61.169 7.65294 60.209 7.41961 59.329 7.41961C58.8757 7.41961 58.4757 7.51294 58.129 7.69961C57.7823 7.87294 57.609 8.16628 57.609 8.57961C57.609 9.08628 58.029 9.45961 58.869 9.69961L60.329 10.1596C62.1557 10.7463 63.069 11.7529 63.069 13.1796C63.069 14.1929 62.6623 14.9596 61.849 15.4796C61.049 15.9863 60.109 16.2396 59.029 16.2396C57.3223 16.2396 55.8823 15.8796 54.709 15.1596L55.529 13.4796C56.5823 14.0796 57.709 14.3796 58.909 14.3796C59.349 14.3796 59.7623 14.2863 60.149 14.0996C60.549 13.9129 60.749 13.6263 60.749 13.2396C60.749 12.6796 60.2823 12.2729 59.349 12.0196L57.889 11.5596C56.1557 10.9863 55.289 10.0063 55.289 8.61961C55.289 7.61961 55.6757 6.86628 56.449 6.35961C57.2223 5.85294 58.1357 5.59961 59.189 5.59961Z" fill="#F8F9FA"/>
<path d="M48.208 5.59961C49.648 5.59961 50.808 6.01294 51.688 6.83961C52.5814 7.66628 53.028 8.79294 53.028 10.2196V15.9996H50.588V14.5596C50.2147 15.1063 49.7014 15.5263 49.048 15.8196C48.408 16.0996 47.7347 16.2396 47.028 16.2396C46.0014 16.2396 45.1147 15.9596 44.368 15.3996C43.6214 14.8396 43.248 14.0596 43.248 13.0596C43.248 12.0196 43.6547 11.2263 44.468 10.6796C45.2947 10.1329 46.2547 9.85961 47.348 9.85961C48.628 9.85961 49.7147 10.2063 50.608 10.8996V10.0996C50.608 9.29961 50.3547 8.67294 49.848 8.21961C49.3414 7.75294 48.688 7.51961 47.888 7.51961C46.6614 7.51961 45.628 7.85294 44.788 8.51961L43.968 6.91961C44.5014 6.49294 45.1547 6.16628 45.928 5.93961C46.7147 5.71294 47.4747 5.59961 48.208 5.59961ZM47.748 14.4796C48.9347 14.4796 49.8814 14.0263 50.588 13.1196L50.608 12.0796C49.8214 11.5729 48.948 11.3196 47.988 11.3196C47.4014 11.3196 46.8747 11.4529 46.408 11.7196C45.9414 11.9863 45.708 12.3863 45.708 12.9196C45.708 13.4263 45.9147 13.8129 46.328 14.0796C46.7414 14.3463 47.2147 14.4796 47.748 14.4796Z" fill="#F8F9FA"/>
<path d="M41.8 3.1998C41.2 3.1998 40.7333 3.3998 40.4 3.7998C40.08 4.18647 39.92 4.69314 39.92 5.3198V5.8398H42.64V7.5798H39.92V15.9998H37.52V7.5798H36V5.8398H37.52V5.1398C37.52 3.96647 37.8733 3.03314 38.58 2.3398C39.3 1.64647 40.2467 1.2998 41.42 1.2998C42.62 1.2998 43.6067 1.59314 44.38 2.1798L43.56 3.7398C43.0533 3.3798 42.4667 3.1998 41.8 3.1998Z" fill="#F8F9FA"/>
</svg>
