<svg width="80" height="80" viewBox="0 0 80 80" fill="none" xmlns="http://www.w3.org/2000/svg">
<rect x="0.5" y="0.5" width="79" height="79" rx="7.5" fill="#F8F9FA"/>
<rect x="0.5" y="0.5" width="79" height="79" rx="7.5" stroke="#E6E6ED"/>
<path d="M53.658 22.8394C51.2644 20.4662 49.5532 18.8911 47.7006 17.9111C42.8831 15.363 37.1169 15.363 32.2994 17.9111C30.1029 19.073 28.1053 21.0714 24.9334 24.2446L24.2446 24.9334C21.0714 28.1053 19.073 30.1029 17.9111 32.2994C15.363 37.1169 15.363 42.8831 17.9111 47.7006C19.0729 49.8971 21.0713 51.8947 24.2445 55.0666L24.9334 55.7554C28.1053 58.9286 30.1029 60.927 32.2994 62.0889C37.1169 64.637 42.8831 64.637 47.7006 62.0889C49.8971 60.927 51.8947 58.9287 55.0666 55.7555L55.7554 55.0666C58.9286 51.8947 60.927 49.8971 62.0889 47.7006C64.637 42.8831 64.637 37.1169 62.0889 32.2994C61.121 30.4695 59.5724 28.7777 57.2477 26.4298L53.7431 29.9344C56.0495 32.2704 57.0888 33.4403 57.7104 34.6154C59.4922 37.984 59.4922 42.016 57.7104 45.3846C56.9436 46.8342 55.5411 48.2759 51.9085 51.9085C48.2759 55.5411 46.8342 56.9436 45.3846 57.7104C42.016 59.4922 37.984 59.4922 34.6154 57.7104C33.1658 56.9436 31.7241 55.5411 28.0915 51.9085C24.4589 48.2759 23.0564 46.8342 22.2896 45.3846C20.5078 42.016 20.5078 37.984 22.2896 34.6154C23.0564 33.1658 24.4589 31.7241 28.0915 28.0915C31.7241 24.4589 33.1658 23.0564 34.6154 22.2896C37.984 20.5078 42.016 20.5078 45.3846 22.2896C46.5743 22.9189 47.7588 23.9765 50.1535 26.3438L53.658 22.8394Z" fill="#48A9E2"/>
<path d="M46.5579 29.9388C45.832 29.2375 45.1591 28.6234 44.5239 28.1288C43.356 27.2195 42.0548 26.4999 40.4404 26.4022C40.1466 26.3845 39.8519 26.3845 39.5581 26.4022C37.9437 26.4999 36.6425 27.2195 35.4746 28.1288C34.3824 28.9792 33.1784 30.1833 31.7861 31.5758L31.5755 31.7863C30.1831 33.1786 28.979 34.3826 28.1286 35.4748C27.2193 36.6427 26.4997 37.9439 26.402 39.5584C26.3842 39.8522 26.3842 40.1468 26.402 40.4406C26.4997 42.0551 27.2193 43.3563 28.1286 44.5241C28.9789 45.6163 30.183 46.8203 31.5755 48.2125L31.7861 48.4232C33.1784 49.8156 34.3824 51.0198 35.4746 51.8702C36.6425 52.7795 37.9437 53.4991 39.5581 53.5967C39.8519 53.6145 40.1466 53.6145 40.4404 53.5967C42.0548 53.4991 43.356 52.7795 44.5239 51.8702C45.6161 51.0198 46.82 49.8157 48.2123 48.4233L48.423 48.2126C49.8154 46.8203 51.0195 45.6163 51.8699 44.5241C52.7792 43.3563 53.4988 42.055 53.5965 40.4406C53.6143 40.1468 53.6143 39.8522 53.5965 39.5584C53.4988 37.9439 52.7792 36.6427 51.8699 35.4748C51.3958 34.8659 50.8117 34.2222 50.1463 33.5305L46.643 37.0338C47.1967 37.6107 47.6263 38.0873 47.9616 38.5179C48.5624 39.2895 48.6393 39.6436 48.6522 39.8574C48.658 39.952 48.658 40.0469 48.6522 40.1415C48.6393 40.3553 48.5624 40.7095 47.9616 41.4811C47.3233 42.301 46.343 43.2875 44.8152 44.8154C43.2873 46.3433 42.3007 47.3235 41.4809 47.9618C40.7092 48.5626 40.3551 48.6396 40.1413 48.6525C40.0467 48.6582 39.9518 48.6582 39.8572 48.6525C39.6434 48.6396 39.2893 48.5626 38.5176 47.9618C37.6978 47.3235 36.7112 46.3433 35.1833 44.8154C33.6554 43.2875 32.6752 42.301 32.0369 41.4811C31.4361 40.7095 31.3592 40.3553 31.3462 40.1415C31.3405 40.0469 31.3405 39.952 31.3462 39.8574C31.3592 39.6436 31.4361 39.2895 32.0369 38.5179C32.6752 37.698 33.6554 36.7114 35.1833 35.1836C36.7112 33.6557 37.6978 32.6755 38.5176 32.0371C39.2893 31.4363 39.6434 31.3594 39.8572 31.3465C39.9518 31.3408 40.0467 31.3408 40.1413 31.3465C40.3551 31.3594 40.7092 31.4363 41.4809 32.0371C41.9336 32.3896 42.4372 32.8464 43.0547 33.442L46.5579 29.9388Z" fill="#3D444E"/>
</svg>
