<svg width="80" height="80" viewBox="0 0 80 80" fill="none" xmlns="http://www.w3.org/2000/svg">
<rect width="80" height="80" rx="8" fill="#E0F7FA"/>
<path fill-rule="evenodd" clip-rule="evenodd" d="M30.5494 24.359C22.0513 24.359 20 31.2454 20 34.6886C20 38.1319 22.1978 45.0183 30.696 45.0183C35.8506 45.0183 38.6333 42.4847 40.0251 39.7227C41.4593 42.4847 44.2959 45.0183 49.4505 45.0183C57.9487 45.0183 60 38.1319 60 34.6886C60 31.2454 57.8022 24.359 49.304 24.359C44.1494 24.359 41.3667 26.8926 39.9749 29.6546C38.5407 26.8926 35.7041 24.359 30.5494 24.359ZM27.3993 34.6886C27.3993 38.7179 29.304 39.5971 30.696 39.5971C32.0879 39.5971 33.8462 38.7179 33.8462 34.6886C33.8462 30.6593 31.9414 29.7802 30.5494 29.7802C29.1575 29.7802 27.3993 30.6593 27.3993 34.6886ZM46.1538 34.6886C46.1538 38.7179 48.0586 39.5971 49.4505 39.5971C50.8425 39.5971 52.6007 38.7179 52.6007 34.6886C52.6007 30.6593 50.696 29.7802 49.304 29.7802C47.9121 29.7802 46.1538 30.6593 46.1538 34.6886ZM22.7839 51.6117V44.8718C27.6191 47.729 36.1172 48.5348 39.9267 48.5348C43.7363 48.5348 52.2344 47.729 57.0696 44.8718V51.6117C53.4066 53.37 47.6923 55.6411 39.9267 55.6411C32.1612 55.6411 26.4469 53.37 22.7839 51.6117Z" fill="#476EDC"/>
</svg>
