<svg width="80" height="80" viewBox="0 0 80 80" fill="none" xmlns="http://www.w3.org/2000/svg">
<path fill-rule="evenodd" clip-rule="evenodd" d="M0 80.0002H80V28.7021L64.8842 18.8625L40.3704 54.9726L16.5172 41.6882L0 57.2595V80.0002Z" fill="#F05924"/>
<path fill-rule="evenodd" clip-rule="evenodd" d="M0 57.2551L16.5171 41.688L40.3704 54.9724L64.8841 18.8623L80 28.6731V0H0V57.2551Z" fill="#F79B20"/>
<path fill-rule="evenodd" clip-rule="evenodd" d="M0 61.0527V53.9822L9.09185 45.3856C8.62812 44.3457 8.37034 43.1937 8.37034 41.9815C8.37034 37.3606 12.1164 33.6145 16.7373 33.6145C21.3583 33.6145 25.1043 37.3606 25.1043 41.9815C25.1043 42.5101 25.0553 43.0273 24.9615 43.5287L34.8676 49.1676C36.3562 47.8042 38.3395 46.9723 40.5171 46.9723C41.3011 46.9723 42.0598 47.0801 42.7793 47.2817L58.2753 23.9208C57.1734 22.5037 56.5171 20.7229 56.5171 18.7888C56.5171 14.1679 60.2632 10.4219 64.8841 10.4219C69.5051 10.4219 73.2511 14.1679 73.2511 18.7888C73.2511 19.4773 73.1679 20.1462 73.0112 20.7863L80 25.1286V31.1772L70.3111 25.1572C68.8501 26.4035 66.955 27.1558 64.8841 27.1558C64.0628 27.1558 63.2692 27.0375 62.5193 26.817L47.0596 50.1233C48.2015 51.5536 48.8841 53.3668 48.8841 55.3393C48.8841 59.9603 45.1381 63.7063 40.5171 63.7063C35.8962 63.7063 32.1502 59.9603 32.1502 55.3393C32.1502 54.7541 32.2102 54.183 32.3246 53.6317L22.5055 48.0424C21.0045 49.4713 18.9734 50.3485 16.7373 50.3485C15.2008 50.3485 13.761 49.9343 12.5235 49.2115L0 61.0527Z" fill="white"/>
</svg>
