<svg width="80" height="80" viewBox="0 0 80 80" fill="none" xmlns="http://www.w3.org/2000/svg">
<rect x="0.5" y="0.5" width="79" height="79" rx="7.5" fill="#121212"/>
<rect x="0.5" y="0.5" width="79" height="79" rx="7.5" stroke="#E6E6ED"/>
<path fill-rule="evenodd" clip-rule="evenodd" d="M64 37.3266C64 23.0929 54.0426 13 40 13C25.9574 13 16 23.0929 16 37.3266C16 51.5602 25.9574 62.4295 40 62.4295C43.0065 62.4295 45.8258 61.9313 48.4002 61.0084L51.234 66.0526H62.2128L56.3614 56.1217C61.1548 51.5822 64 44.935 64 37.3266ZM51.217 47.4195C52.5981 45.0359 53.5319 41.778 53.5319 37.3266C53.5319 24.2834 44.5106 21.3677 40 21.5402C35.4894 21.3677 26.4681 24.2834 26.4681 37.3266C26.4681 53.113 38.2128 53.8893 40 53.8893C40.5669 53.8893 42.1357 53.8112 44.0138 53.2007L40.766 47.4195H51.217Z" fill="#EFEFEF"/>
</svg>
