<svg width="80" height="80" viewBox="0 0 80 80" fill="none" xmlns="http://www.w3.org/2000/svg">
<g clip-path="url(#clip0_8293_28111)">
<rect width="80" height="80" fill="#F8F9FA"/>
<path fill-rule="evenodd" clip-rule="evenodd" d="M44.4628 21.5641C47.7098 21.5741 50.8934 22.4639 53.6746 24.1387C56.4558 25.8135 58.7305 28.2106 60.2567 31.075C61.7829 33.9393 62.5034 37.1636 62.3415 40.4047C62.1796 43.6458 61.1414 46.7824 59.3374 49.4806L62.1041 52.2456C62.7578 52.8989 63.125 53.785 63.125 54.7089C63.125 55.6328 62.7578 56.5189 62.1041 57.1722C61.4504 57.8255 60.5638 58.1925 59.6393 58.1925C58.7149 58.1925 57.8283 57.8255 57.1746 57.1722L54.408 54.4056C52.0772 55.9649 49.4131 56.9565 46.6295 57.3009C43.846 57.6452 41.0204 57.3329 38.3795 56.3887C35.7386 55.4446 33.356 53.895 31.4225 51.8643C29.4891 49.8336 28.0588 47.3782 27.2463 44.6952C26.4339 42.0122 26.262 39.1763 26.7444 36.4149C27.2267 33.6536 28.3499 31.0436 30.0239 28.7944C31.6978 26.5452 33.8759 24.7195 36.3834 23.4636C38.8909 22.2077 41.658 21.5566 44.4628 21.5625V21.5641ZM44.4628 28.6506C47.3293 28.6518 50.078 29.7903 52.1049 31.816C54.1318 33.8417 55.271 36.5888 55.2722 39.4536C55.3009 41.1349 54.9147 42.7973 54.1477 44.2939L53.0231 43.1701C52.3694 42.5168 51.4829 42.1497 50.5584 42.1497C49.634 42.1497 48.7474 42.5168 48.0938 43.1701C47.4401 43.8234 47.0728 44.7094 47.0728 45.6333C47.0728 46.5572 47.4401 47.4433 48.0938 48.0966L49.2182 49.2204C47.7327 49.9376 46.108 50.3213 44.4584 50.3443C43.0048 50.3893 41.557 50.142 40.2009 49.6172C38.8448 49.0923 37.608 48.3005 36.5639 47.2888C35.5198 46.2772 34.6897 45.0662 34.1228 43.7278C33.5559 42.3894 33.2638 40.9508 33.2638 39.4974C33.2638 38.044 33.5559 36.6055 34.1228 35.2671C34.6897 33.9287 35.5198 32.7176 36.5639 31.7059C37.608 30.6943 38.8448 29.9026 40.2009 29.3777C41.557 28.8529 43.0048 28.6056 44.4584 28.6506H44.4628ZM16.8765 23.4654V55.531C16.8765 56.9135 17.3956 57.4323 18.8652 57.4323H22.0677C23.4511 57.4323 23.9702 56.9135 23.9702 55.531V23.4654C23.9702 21.9967 23.4511 21.5641 22.0677 21.5641H18.8682C17.3942 21.5641 16.875 21.9967 16.875 23.4654H16.8765Z" fill="#0F81C3"/>
</g>
<defs>
<clipPath id="clip0_8293_28111">
<rect width="80" height="80" fill="white"/>
</clipPath>
</defs>
</svg>
