<svg width="80" height="80" viewBox="0 0 80 80" fill="none" xmlns="http://www.w3.org/2000/svg">
<path d="M0.5 8C0.5 3.85787 3.85786 0.5 8 0.5H72C76.1421 0.5 79.5 3.85786 79.5 8V72C79.5 76.1421 76.1421 79.5 72 79.5H8C3.85787 79.5 0.5 76.1421 0.5 72V8Z" fill="white"/>
<path d="M0.5 8C0.5 3.85787 3.85786 0.5 8 0.5H72C76.1421 0.5 79.5 3.85786 79.5 8V72C79.5 76.1421 76.1421 79.5 72 79.5H8C3.85787 79.5 0.5 76.1421 0.5 72V8Z" stroke="#E6E6ED"/>
<path d="M63.2728 45.9091V20H37.8182V28.1818H55.091V45.9091H63.2728Z" fill="#BABABA"/>
<path d="M37.8182 28.6365H16V60.0001H55.0909V45.9092H46.9091V51.8183H24.1818V36.8183H37.8182V28.6365Z" fill="#344FFF"/>
</svg>
